REM DIRINDEX 1\2,1\3,1\4,1\5
REM DIRNAME folder01,folder02,folder03,folder04,folder05
TITLE ""
FILE "1800_182.mp3" MP3
  TRACK 01 AUDIO
    TITLE "2:cjc044_6333"
    INDEX 01 00:00:00
  TRACK 02 AUDIO
    TITLE "0:"
    INDEX 01 00:01:13
  TRACK 03 AUDIO
    TITLE "3:cjc044_6334"
    INDEX 01 00:01:60
  TRACK 04 AUDIO
    TITLE "0:"
    INDEX 01 00:03:15
  TRACK 05 AUDIO
    TITLE "4:cjc044_6335"
    INDEX 01 00:03:63
  TRACK 06 AUDIO
    TITLE "0:"
    INDEX 01 00:05:14
  TRACK 07 AUDIO
    TITLE "2:cjc044_6336"
    INDEX 01 00:06:63
  TRACK 08 AUDIO
    TITLE "0:"
    INDEX 01 00:08:15
  TRACK 09 AUDIO
    TITLE "3:cjc044_6337"
    INDEX 01 00:08:64
  TRACK 10 AUDIO
    TITLE "0:"
    INDEX 01 00:10:04
  TRACK 11 AUDIO
    TITLE "4:cjc044_6338"
    INDEX 01 00:10:53
  TRACK 12 AUDIO
    TITLE "0:"
    INDEX 01 00:12:05
  TRACK 13 AUDIO
    TITLE "2:cjc044_6339"
    INDEX 01 00:13:55
  TRACK 14 AUDIO
    TITLE "0:"
    INDEX 01 00:15:01
  TRACK 15 AUDIO
    TITLE "3:cjc044_6340"
    INDEX 01 00:15:50
  TRACK 16 AUDIO
    TITLE "0:"
    INDEX 01 00:17:04
  TRACK 17 AUDIO
    TITLE "4:cjc044_6341"
    INDEX 01 00:17:49
  TRACK 18 AUDIO
    TITLE "0:"
    INDEX 01 00:18:70
  TRACK 19 AUDIO
    TITLE "2:cjc044_6342"
    INDEX 01 00:20:45
  TRACK 20 AUDIO
    TITLE "0:"
    INDEX 01 00:22:13
  TRACK 21 AUDIO
    TITLE "3:cjc044_6343"
    INDEX 01 00:22:58
  TRACK 22 AUDIO
    TITLE "0:"
    INDEX 01 00:23:53
  TRACK 23 AUDIO
    TITLE "4:cjc044_6344"
    INDEX 01 00:24:25
  TRACK 24 AUDIO
    TITLE "0:"
    INDEX 01 00:25:68
  TRACK 25 AUDIO
    TITLE "2:cjc044_6345"
    INDEX 01 00:27:38
  TRACK 26 AUDIO
    TITLE "0:"
    INDEX 01 00:28:66
  TRACK 27 AUDIO
    TITLE "3:cjc044_6346"
    INDEX 01 00:29:38
  TRACK 28 AUDIO
    TITLE "0:"
    INDEX 01 00:30:38
  TRACK 29 AUDIO
    TITLE "4:cjc044_6347"
    INDEX 01 00:31:06
  TRACK 30 AUDIO
    TITLE "0:"
    INDEX 01 00:32:35
  TRACK 31 AUDIO
    TITLE "2:cjc044_6348"
    INDEX 01 00:34:08
  TRACK 32 AUDIO
    TITLE "0:"
    INDEX 01 00:35:27
  TRACK 33 AUDIO
    TITLE "3:cjc044_6349"
    INDEX 01 00:35:74
  TRACK 34 AUDIO
    TITLE "0:"
    INDEX 01 00:37:10
  TRACK 35 AUDIO
    TITLE "4:cjc044_6350"
    INDEX 01 00:37:59
  TRACK 36 AUDIO
    TITLE "0:"
    INDEX 01 00:39:03
  TRACK 37 AUDIO
    TITLE "2:cjc044_6351"
    INDEX 01 00:40:54
  TRACK 38 AUDIO
    TITLE "0:"
    INDEX 01 00:42:19
  TRACK 39 AUDIO
    TITLE "3:cjc044_6352"
    INDEX 01 00:42:66
  TRACK 40 AUDIO
    TITLE "0:"
    INDEX 01 00:44:24
  TRACK 41 AUDIO
    TITLE "4:cjc044_6353"
    INDEX 01 00:44:69
  TRACK 42 AUDIO
    TITLE "0:"
    INDEX 01 00:46:39
  TRACK 43 AUDIO
    TITLE "2:cjc044_6354"
    INDEX 01 00:48:12
  TRACK 44 AUDIO
    TITLE "0:"
    INDEX 01 00:49:47
  TRACK 45 AUDIO
    TITLE "3:cjc044_6355"
    INDEX 01 00:50:19
  TRACK 46 AUDIO
    TITLE "0:"
    INDEX 01 00:51:28
  TRACK 47 AUDIO
    TITLE "4:cjc044_6356"
    INDEX 01 00:52:02
  TRACK 48 AUDIO
    TITLE "0:"
    INDEX 01 00:53:35
  TRACK 49 AUDIO
    TITLE "2:cjc044_6357"
    INDEX 01 00:55:06
  TRACK 50 AUDIO
    TITLE "0:"
    INDEX 01 00:56:43
  TRACK 51 AUDIO
    TITLE "3:cjc044_6358"
    INDEX 01 00:57:17
  TRACK 52 AUDIO
    TITLE "0:"
    INDEX 01 00:58:44
  TRACK 53 AUDIO
    TITLE "4:cjc044_6359"
    INDEX 01 00:59:14
  TRACK 54 AUDIO
    TITLE "0:"
    INDEX 01 01:00:47
  TRACK 55 AUDIO
    TITLE "2:cjc044_6360"
    INDEX 01 01:02:24
  TRACK 56 AUDIO
    TITLE "0:"
    INDEX 01 01:03:71
  TRACK 57 AUDIO
    TITLE "3:cjc044_6361"
    INDEX 01 01:04:45
  TRACK 58 AUDIO
    TITLE "0:"
    INDEX 01 01:05:68
  TRACK 59 AUDIO
    TITLE "4:cjc044_6362"
    INDEX 01 01:06:42
  TRACK 60 AUDIO
    TITLE "0:"
    INDEX 01 01:08:15
  TRACK 61 AUDIO
    TITLE "2:cjc044_6363"
    INDEX 01 01:09:63
  TRACK 62 AUDIO
    TITLE "0:"
    INDEX 01 01:11:25
  TRACK 63 AUDIO
    TITLE "3:cjc044_6364"
    INDEX 01 01:12:01
  TRACK 64 AUDIO
    TITLE "0:"
    INDEX 01 01:13:06
  TRACK 65 AUDIO
    TITLE "4:cjc044_6365"
    INDEX 01 01:13:51
  TRACK 66 AUDIO
    TITLE "0:"
    INDEX 01 01:15:17
  TRACK 67 AUDIO
    TITLE "2:cjc044_6366"
    INDEX 01 01:16:69
  TRACK 68 AUDIO
    TITLE "0:"
    INDEX 01 01:18:09
  TRACK 69 AUDIO
    TITLE "3:cjc044_6367"
    INDEX 01 01:18:58
  TRACK 70 AUDIO
    TITLE "0:"
    INDEX 01 01:19:62
  TRACK 71 AUDIO
    TITLE "4:cjc044_6368"
    INDEX 01 01:20:40
  TRACK 72 AUDIO
    TITLE "0:"
    INDEX 01 01:21:59
  TRACK 73 AUDIO
    TITLE "2:cjc044_6369"
    INDEX 01 01:23:36
  TRACK 74 AUDIO
    TITLE "0:"
    INDEX 01 01:24:59
  TRACK 75 AUDIO
    TITLE "3:cjc044_6370"
    INDEX 01 01:25:29
  TRACK 76 AUDIO
    TITLE "0:"
    INDEX 01 01:27:28
  TRACK 77 AUDIO
    TITLE "4:cjc044_6371"
    INDEX 01 01:28:04
  TRACK 78 AUDIO
    TITLE "0:"
    INDEX 01 01:29:27
  TRACK 79 AUDIO
    TITLE "2:cjc044_6372"
    INDEX 01 01:31:00
  TRACK 80 AUDIO
    TITLE "0:"
    INDEX 01 01:32:27
  TRACK 81 AUDIO
    TITLE "3:cjc044_6373"
    INDEX 01 01:32:74
  TRACK 82 AUDIO
    TITLE "0:"
    INDEX 01 01:34:05
  TRACK 83 AUDIO
    TITLE "4:cjc044_6374"
    INDEX 01 01:34:54
  TRACK 84 AUDIO
    TITLE "0:"
    INDEX 01 01:36:05
  TRACK 85 AUDIO
    TITLE "2:cjc044_6375"
    INDEX 01 01:37:52
  TRACK 86 AUDIO
    TITLE "0:"
    INDEX 01 01:38:71
  TRACK 87 AUDIO
    TITLE "3:cjc044_6376"
    INDEX 01 01:39:47
  TRACK 88 AUDIO
    TITLE "0:"
    INDEX 01 01:40:38
  TRACK 89 AUDIO
    TITLE "4:cjc044_6377"
    INDEX 01 01:41:12
  TRACK 90 AUDIO
    TITLE "0:"
    INDEX 01 01:42:31
  TRACK 91 AUDIO
    TITLE "2:cjc044_6378"
    INDEX 01 01:44:05
  TRACK 92 AUDIO
    TITLE "0:"
    INDEX 01 01:45:30
  TRACK 93 AUDIO
    TITLE "3:cjc044_6379"
    INDEX 01 01:46:00
  TRACK 94 AUDIO
    TITLE "0:"
    INDEX 01 01:47:23
  TRACK 95 AUDIO
    TITLE "4:cjc044_6380"
    INDEX 01 01:47:70
  TRACK 96 AUDIO
    TITLE "0:"
    INDEX 01 01:49:20
  TRACK 97 AUDIO
    TITLE "2:cjc044_6381"
    INDEX 01 01:50:66
  TRACK 98 AUDIO
    TITLE "0:"
    INDEX 01 01:52:26
  TRACK 99 AUDIO
    TITLE "3:cjc044_6382"
    INDEX 01 01:52:73
  TRACK 100 AUDIO
    TITLE "0:"
    INDEX 01 01:54:27
  TRACK 101 AUDIO
    TITLE "4:cjc044_6383"
    INDEX 01 01:55:01
  TRACK 102 AUDIO
    TITLE "0:"
    INDEX 01 01:56:36
  TRACK 103 AUDIO
    TITLE "2:cjc044_6384"
    INDEX 01 01:58:09
  TRACK 104 AUDIO
    TITLE "0:"
    INDEX 01 01:59:38
  TRACK 105 AUDIO
    TITLE "3:cjc044_6385"
    INDEX 01 02:00:08
  TRACK 106 AUDIO
    TITLE "0:"
    INDEX 01 02:01:25
  TRACK 107 AUDIO
    TITLE "4:cjc044_6386"
    INDEX 01 02:01:72
  TRACK 108 AUDIO
    TITLE "0:"
    INDEX 01 02:03:26
